<svg xmlns="http://www.w3.org/2000/svg" xmlns:xlink="http://www.w3.org/1999/xlink" width="500" zoomAndPan="magnify" viewBox="0 0 375 374.999991" height="500" preserveAspectRatio="xMidYMid meet" version="1.0"><path fill="#ffffff" d="M 54.292969 147.109375 C 53.828125 147.199219 53.382812 147.617188 53.273438 148.066406 C 53.164062 148.503906 53.125 152.40625 53.179688 156.738281 L 53.285156 164.613281 L 68.480469 164.792969 L 83.679688 164.976562 L 84.046875 235.289062 L 92.878906 235.386719 L 101.714844 235.488281 L 102.308594 234.582031 C 102.84375 233.761719 102.910156 230.285156 102.996094 199.324219 L 103.089844 164.976562 L 118.285156 164.796875 L 133.484375 164.613281 L 133.582031 156.03125 C 133.65625 149.410156 133.574219 147.382812 133.214844 147.15625 C 132.75 146.859375 55.828125 146.8125 54.292969 147.109375 M 137.054688 147.109375 C 136.601562 147.195312 136.230469 147.40625 136.230469 147.578125 C 136.230469 148.03125 139.222656 152.792969 145.671875 162.597656 C 148.785156 167.332031 151.707031 171.78125 152.164062 172.484375 C 154.042969 175.375 169.757812 200.445312 170.921875 202.414062 C 171.734375 203.785156 171.742188 203.925781 171.746094 219.015625 C 171.75 230.609375 171.863281 234.382812 172.210938 234.859375 C 172.625 235.425781 173.507812 235.476562 181.273438 235.390625 L 189.878906 235.289062 L 189.976562 217.917969 L 190.070312 200.542969 L 185.78125 193.746094 C 183.417969 190.007812 180.234375 184.890625 178.703125 182.371094 C 177.171875 179.855469 174.9375 176.253906 173.742188 174.371094 C 172.546875 172.488281 171.40625 170.667969 171.203125 170.328125 C 170.878906 169.78125 167.601562 164.636719 165.339844 161.132812 C 163.660156 158.527344 161.761719 155.457031 159.421875 151.5625 C 158.101562 149.363281 156.722656 147.402344 156.355469 147.207031 C 155.710938 146.863281 138.785156 146.777344 137.054688 147.109375 M 205.808594 147.085938 C 205.507812 147.171875 203.621094 149.832031 201.621094 152.996094 C 199.4375 156.445312 197.25 159.886719 195.058594 163.328125 C 191.355469 169.132812 186.574219 176.769531 184.824219 179.675781 C 184.082031 180.910156 183.472656 182.390625 183.476562 182.96875 C 183.480469 183.605469 184.238281 185.203125 185.398438 187.015625 C 186.453125 188.660156 188.605469 192.023438 190.183594 194.484375 C 193.582031 199.792969 192.851562 200.011719 197.585938 192.261719 C 199.371094 189.339844 202.402344 184.523438 204.328125 181.558594 C 206.25 178.59375 210.378906 172.203125 213.5 167.355469 C 221.097656 155.554688 225.175781 149.363281 225.851562 148.605469 C 226.15625 148.257812 226.308594 147.722656 226.191406 147.414062 C 226.003906 146.925781 224.679688 146.855469 216.167969 146.894531 C 210.773438 146.917969 206.113281 147.003906 205.808594 147.085938 M 229.878906 147.074219 C 229.734375 147.21875 229.613281 151.179688 229.613281 155.871094 C 229.613281 164.226562 229.628906 164.410156 230.402344 164.824219 C 230.980469 165.132812 237.71875 165.210938 255.765625 165.113281 L 280.347656 164.976562 L 282.792969 166.179688 C 287.097656 168.296875 288.761719 171.285156 288.753906 176.878906 C 288.75 180.039062 288.648438 180.539062 287.667969 182.3125 C 287.078125 183.390625 285.726562 185.0625 284.664062 186.027344 C 281.316406 189.089844 282.617188 188.964844 254.453125 188.964844 L 229.613281 188.964844 L 229.613281 211.285156 C 229.613281 227.445312 229.730469 233.867188 230.039062 234.539062 L 230.464844 235.472656 L 238.964844 235.472656 C 245.617188 235.472656 247.558594 235.367188 247.875 234.984375 C 248.152344 234.648438 248.3125 230.160156 248.378906 220.792969 L 248.472656 207.09375 L 258.132812 206.996094 C 265.46875 206.921875 267.925781 207.007812 268.347656 207.355469 C 268.652344 207.609375 272.6875 213.503906 277.3125 220.457031 C 281.941406 227.40625 286.234375 233.628906 286.855469 234.285156 L 287.984375 235.472656 L 297.597656 235.472656 C 302.882812 235.472656 307.296875 235.328125 307.40625 235.152344 C 307.515625 234.972656 303.234375 228.273438 297.894531 220.265625 C 292.554688 212.257812 288.238281 205.535156 288.308594 205.324219 C 288.457031 204.882812 288.707031 204.738281 291.871094 203.242188 C 294.910156 201.804688 298.417969 198.964844 301.097656 195.777344 C 306.164062 189.746094 308.3125 183.097656 307.886719 174.765625 C 307.535156 167.917969 304.816406 161.472656 300.1875 156.519531 C 296.054688 152.09375 291.609375 149.476562 285.460938 147.855469 C 282.636719 147.109375 281.589844 147.078125 256.339844 146.945312 C 241.933594 146.867188 230.027344 146.925781 229.878906 147.074219 " fill-opacity="1" fill-rule="evenodd"/></svg>