<svg xmlns="http://www.w3.org/2000/svg" xmlns:xlink="http://www.w3.org/1999/xlink" width="500" zoomAndPan="magnify" viewBox="0 0 375 374.999991" height="500" preserveAspectRatio="xMidYMid meet" version="1.0"><path fill="#2756d5" d="M 241.3125 148.121094 C 249.339844 148.078125 257.367188 148.117188 265.394531 148.199219 C 265.980469 148.203125 266.570312 148.207031 267.15625 148.210938 C 282.875 148.34375 282.875 148.34375 289.34375 151.972656 C 290.710938 152.78125 291.925781 153.761719 293.125 154.792969 L 293.6875 155.265625 C 297.101562 158.234375 300.167969 162.101562 301.664062 166.425781 C 301.765625 166.769531 301.863281 167.117188 301.957031 167.464844 C 302.085938 167.972656 302.085938 167.972656 302.410156 168.644531 C 303.417969 171.101562 303.351562 173.871094 303.359375 176.484375 L 303.363281 177.054688 C 303.351562 181.902344 302.148438 186.78125 299.777344 191.023438 C 299.339844 191.757812 298.847656 192.445312 298.332031 193.125 L 297.921875 193.691406 C 297.210938 194.640625 297.210938 194.640625 296.875 195 L 296.457031 195 L 296.457031 195.417969 L 296.042969 195.417969 L 295.886719 195.769531 C 294.976562 197.4375 293.398438 198.707031 291.875 199.792969 L 291.335938 200.183594 C 290.441406 200.824219 289.566406 201.449219 288.542969 201.875 L 287.917969 201.875 L 287.917969 202.292969 C 287.40625 202.535156 286.894531 202.777344 286.378906 203.019531 L 285.9375 203.230469 C 284.839844 203.75 284.839844 203.75 284.375 203.75 C 284.582031 205.167969 284.996094 206.027344 285.851562 207.167969 C 286.246094 207.699219 286.601562 208.242188 286.953125 208.800781 L 287.707031 210 C 289.519531 212.847656 291.394531 215.65625 293.332031 218.425781 C 294.28125 219.777344 295.207031 221.128906 296.066406 222.539062 C 297.503906 224.890625 299.125 227.121094 300.734375 229.355469 L 301.085938 229.84375 C 301.300781 230.148438 301.519531 230.453125 301.742188 230.753906 L 302.035156 231.164062 L 302.292969 231.519531 C 302.53125 231.925781 302.652344 232.242188 302.707031 232.707031 L 302.292969 233.332031 C 301.617188 233.59375 300.941406 233.566406 300.226562 233.570312 L 298.652344 233.570312 C 298.371094 233.570312 298.085938 233.570312 297.804688 233.570312 C 297.207031 233.570312 296.613281 233.570312 296.015625 233.570312 C 295.414062 233.566406 294.8125 233.566406 294.210938 233.570312 C 292.25 233.570312 290.292969 233.5625 288.332031 233.542969 L 287.652344 233.535156 C 287.070312 233.53125 286.488281 233.515625 285.90625 233.5 L 285.414062 233.496094 C 284.824219 233.472656 284.3125 233.421875 283.800781 233.113281 C 283.019531 232.488281 282.515625 231.761719 282.003906 230.910156 L 281.78125 230.550781 C 281.589844 230.234375 281.417969 229.910156 281.25 229.582031 L 281.25 228.957031 L 280.832031 228.957031 C 280.566406 228.625 280.566406 228.625 280.257812 228.15625 L 279.90625 227.625 L 279.53125 227.042969 L 278.738281 225.839844 L 278.328125 225.207031 C 277.683594 224.226562 277.03125 223.253906 276.378906 222.277344 L 275.648438 221.183594 L 275.308594 220.671875 L 273.726562 218.300781 C 273.445312 217.878906 273.164062 217.453125 272.878906 217.03125 C 271.9375 215.625 271.007812 214.210938 270.085938 212.792969 C 268.203125 209.597656 268.203125 209.597656 265.890625 206.742188 L 265.625 206.457031 L 265.625 205.832031 C 264.675781 205.828125 263.730469 205.824219 262.78125 205.820312 C 262.460938 205.820312 262.140625 205.820312 261.820312 205.816406 C 260.183594 205.808594 258.5625 205.820312 256.933594 205.9375 C 254.800781 206.085938 252.671875 206.058594 250.535156 206.042969 C 249.726562 206.035156 248.917969 206.03125 248.113281 206.027344 L 247.554688 206.023438 C 247.121094 206.023438 246.683594 206.03125 246.25 206.042969 L 246.042969 206.25 C 246.011719 206.53125 245.988281 206.8125 245.976562 207.09375 L 245.953125 207.636719 L 245.925781 208.234375 L 245.902344 208.859375 C 245.816406 210.992188 245.796875 213.128906 245.785156 215.265625 C 245.78125 215.964844 245.777344 216.664062 245.773438 217.363281 C 245.757812 219.347656 245.746094 221.328125 245.734375 223.3125 C 245.726562 224.535156 245.71875 225.757812 245.707031 226.980469 C 245.707031 227.441406 245.703125 227.90625 245.703125 228.371094 C 245.699219 229.011719 245.695312 229.65625 245.6875 230.300781 L 245.6875 230.878906 L 245.679688 231.40625 L 245.679688 231.867188 C 245.617188 232.363281 245.472656 232.699219 245.207031 233.125 C 243.09375 234.183594 239.351562 233.574219 237.039062 233.570312 C 236.289062 233.566406 235.535156 233.570312 234.78125 233.570312 C 234.296875 233.570312 233.8125 233.570312 233.328125 233.570312 L 232.65625 233.570312 C 231.40625 233.566406 230.191406 233.53125 228.957031 233.332031 C 228.542969 232.917969 228.542969 232.917969 228.414062 232.578125 C 228.296875 231.859375 228.304688 231.144531 228.304688 230.417969 L 228.304688 229.902344 C 228.304688 229.335938 228.304688 228.765625 228.304688 228.199219 L 228.300781 226.980469 C 228.300781 225.875 228.296875 224.765625 228.296875 223.660156 C 228.296875 222.738281 228.296875 221.816406 228.296875 220.894531 C 228.296875 218.71875 228.292969 216.539062 228.292969 214.363281 C 228.292969 212.117188 228.292969 209.871094 228.289062 207.625 C 228.285156 205.699219 228.285156 203.769531 228.285156 201.84375 C 228.285156 200.691406 228.285156 199.539062 228.28125 198.386719 C 228.28125 197.304688 228.28125 196.222656 228.28125 195.140625 C 228.28125 194.742188 228.28125 194.34375 228.28125 193.945312 C 228.277344 193.402344 228.28125 192.859375 228.28125 192.320312 L 228.277344 191.839844 C 228.285156 191 228.347656 190.328125 228.75 189.582031 C 229.433594 189.242188 230.195312 189.347656 230.949219 189.347656 L 231.515625 189.347656 C 232.144531 189.34375 232.773438 189.34375 233.402344 189.34375 L 234.753906 189.34375 C 235.726562 189.339844 236.695312 189.339844 237.667969 189.339844 C 239.207031 189.339844 240.746094 189.335938 242.285156 189.332031 L 244.664062 189.324219 C 248.246094 189.316406 251.828125 189.308594 255.414062 189.308594 C 257.828125 189.304688 260.242188 189.300781 262.65625 189.292969 C 263.933594 189.289062 265.210938 189.285156 266.488281 189.285156 C 267.695312 189.289062 268.898438 189.285156 270.101562 189.28125 C 270.542969 189.277344 270.980469 189.277344 271.421875 189.28125 C 274.476562 189.289062 277.394531 189.128906 280.195312 187.785156 C 281.933594 186.734375 283.320312 185.253906 284.308594 183.484375 C 285.738281 180.523438 286.007812 178.039062 285.832031 174.792969 C 285.566406 172.855469 284.855469 171.253906 283.722656 169.675781 C 282.902344 168.652344 281.941406 167.976562 280.832031 167.292969 L 280.378906 166.992188 C 278.8125 166.027344 277.085938 165.648438 275.265625 165.566406 C 274.078125 165.535156 272.890625 165.539062 271.699219 165.542969 C 271.246094 165.539062 270.789062 165.539062 270.332031 165.539062 C 269.355469 165.535156 268.382812 165.53125 267.40625 165.53125 C 265.859375 165.535156 264.316406 165.53125 262.769531 165.523438 C 259.914062 165.515625 257.054688 165.511719 254.195312 165.507812 C 250.238281 165.503906 246.277344 165.496094 242.316406 165.488281 C 240.78125 165.480469 239.246094 165.480469 237.710938 165.480469 C 236.757812 165.480469 235.804688 165.476562 234.851562 165.472656 C 234.40625 165.472656 233.964844 165.472656 233.523438 165.472656 C 232.921875 165.476562 232.316406 165.472656 231.710938 165.46875 L 231.183594 165.472656 C 230.160156 165.464844 229.292969 165.375 228.332031 165 C 228.089844 164.269531 228.09375 163.691406 228.089844 162.921875 L 228.082031 162.476562 C 228.078125 161.988281 228.078125 161.503906 228.074219 161.015625 L 228.074219 160.511719 C 228.070312 159.632812 228.066406 158.753906 228.0625 157.875 C 228.0625 156.96875 228.054688 156.058594 228.046875 155.152344 C 228.039062 154.453125 228.039062 153.753906 228.039062 153.054688 C 228.035156 152.722656 228.035156 152.386719 228.03125 152.050781 C 228.027344 151.582031 228.023438 151.117188 228.027344 150.648438 L 228.023438 149.839844 C 228.125 149.167969 228.125 149.167969 228.492188 148.664062 C 228.957031 148.332031 228.957031 148.332031 229.386719 148.226562 L 229.855469 148.21875 L 230.394531 148.207031 L 230.988281 148.207031 L 231.625 148.195312 C 232.332031 148.1875 233.042969 148.179688 233.75 148.175781 C 234.261719 148.171875 234.773438 148.164062 235.285156 148.160156 C 236.847656 148.140625 238.40625 148.132812 239.96875 148.128906 Z M 241.3125 148.121094 " fill-opacity="1" fill-rule="nonzero"/><path fill="#2360d7" d="M 59.101562 148.28125 L 59.789062 148.28125 L 60.585938 148.277344 L 61.464844 148.277344 L 62.398438 148.273438 C 63.25 148.273438 64.105469 148.273438 64.960938 148.273438 C 65.882812 148.273438 66.800781 148.269531 67.722656 148.269531 C 69.527344 148.265625 71.332031 148.261719 73.136719 148.265625 C 74.601562 148.261719 76.070312 148.261719 77.535156 148.261719 C 81.6875 148.257812 85.84375 148.257812 89.996094 148.257812 L 91.355469 148.257812 C 94.992188 148.257812 98.628906 148.253906 102.269531 148.246094 C 106 148.242188 109.730469 148.238281 113.464844 148.238281 C 115.558594 148.238281 117.65625 148.238281 119.753906 148.234375 C 121.539062 148.226562 123.320312 148.226562 125.105469 148.230469 C 126.019531 148.230469 126.929688 148.230469 127.839844 148.230469 C 128.671875 148.226562 129.507812 148.226562 130.339844 148.230469 C 130.640625 148.230469 130.945312 148.230469 131.246094 148.226562 C 131.65625 148.222656 132.066406 148.226562 132.472656 148.230469 L 133.164062 148.230469 C 133.75 148.332031 133.75 148.332031 134.238281 148.722656 C 134.582031 149.167969 134.582031 149.167969 134.695312 149.726562 L 134.710938 150.375 L 134.730469 151.125 L 134.738281 151.941406 C 134.746094 152.222656 134.75 152.503906 134.757812 152.789062 C 134.769531 153.5625 134.78125 154.339844 134.785156 155.117188 C 134.792969 155.644531 134.800781 156.171875 134.808594 156.699219 C 134.820312 157.621094 134.832031 158.539062 134.839844 159.457031 C 134.84375 159.816406 134.847656 160.175781 134.851562 160.535156 C 134.855469 161.042969 134.859375 161.550781 134.859375 162.058594 L 134.867188 162.511719 C 134.863281 163.230469 134.792969 163.890625 134.566406 164.570312 L 134.167969 165.207031 C 132.84375 165.527344 131.464844 165.441406 130.113281 165.4375 L 129.328125 165.4375 C 128.765625 165.433594 128.207031 165.433594 127.648438 165.433594 C 126.761719 165.429688 125.875 165.429688 124.988281 165.425781 C 123.109375 165.425781 121.230469 165.421875 119.347656 165.417969 C 117.316406 165.410156 115.285156 165.40625 113.253906 165.40625 C 112.375 165.40625 111.492188 165.402344 110.613281 165.398438 C 109.9375 165.398438 109.261719 165.398438 108.585938 165.394531 L 107.167969 165.394531 L 106.582031 165.390625 C 106.035156 165.417969 105.53125 165.503906 105 165.625 C 104.800781 166.300781 104.761719 166.910156 104.757812 167.613281 L 104.753906 168.328125 L 104.75 169.117188 L 104.742188 169.953125 C 104.738281 170.71875 104.734375 171.484375 104.730469 172.25 C 104.726562 172.90625 104.71875 173.558594 104.714844 174.214844 C 104.703125 176 104.695312 177.78125 104.683594 179.5625 C 104.675781 180.871094 104.667969 182.183594 104.660156 183.492188 C 104.609375 192.140625 104.574219 200.789062 104.578125 209.4375 L 104.578125 210.011719 C 104.578125 213.675781 104.582031 217.34375 104.589844 221.011719 C 104.589844 222.367188 104.59375 223.726562 104.59375 225.085938 C 104.59375 226.019531 104.597656 226.953125 104.601562 227.886719 C 104.601562 228.320312 104.601562 228.75 104.601562 229.179688 C 104.601562 229.695312 104.605469 230.214844 104.605469 230.734375 L 104.605469 231.417969 L 104.609375 232.007812 C 104.582031 232.5 104.582031 232.5 104.375 233.125 C 103.910156 233.359375 103.621094 233.375 103.105469 233.398438 L 102.566406 233.421875 L 101.980469 233.449219 L 101.363281 233.472656 C 99.125 233.5625 96.886719 233.582031 94.648438 233.582031 C 93.949219 233.582031 93.246094 233.585938 92.546875 233.589844 C 92.097656 233.589844 91.648438 233.589844 91.199219 233.589844 L 90.570312 233.59375 C 89.546875 233.589844 88.644531 233.585938 87.707031 233.125 C 87.367188 232.761719 87.367188 232.761719 87.082031 232.292969 C 87.007812 231.761719 87.007812 231.761719 87.007812 231.152344 L 87.003906 230.445312 L 87.011719 229.671875 L 87.011719 228.847656 C 87.007812 228.09375 87.011719 227.335938 87.015625 226.582031 C 87.019531 225.769531 87.019531 224.953125 87.019531 224.140625 C 87.023438 222.730469 87.023438 221.320312 87.03125 219.910156 C 87.035156 217.867188 87.039062 215.828125 87.042969 213.789062 C 87.046875 210.476562 87.050781 207.167969 87.058594 203.859375 L 87.058594 203.257812 C 87.0625 202.453125 87.0625 201.652344 87.066406 200.847656 C 87.070312 198.636719 87.074219 196.425781 87.082031 194.214844 L 87.082031 193.613281 C 87.089844 190.316406 87.09375 187.015625 87.097656 183.71875 C 87.097656 181.683594 87.105469 179.644531 87.109375 177.609375 C 87.113281 176.21875 87.117188 174.824219 87.117188 173.429688 C 87.121094 172.625 87.121094 171.820312 87.125 171.015625 C 87.128906 170.144531 87.128906 169.273438 87.128906 168.402344 L 87.132812 167.621094 L 87.132812 166.308594 L 87.082031 165.832031 L 86.667969 165.417969 C 86.171875 165.355469 86.171875 165.355469 85.589844 165.367188 L 84.898438 165.367188 L 84.136719 165.371094 L 83.335938 165.375 C 82.761719 165.375 82.1875 165.375 81.613281 165.378906 C 80.703125 165.382812 79.792969 165.386719 78.882812 165.386719 C 77.445312 165.390625 76.003906 165.394531 74.5625 165.398438 C 71.988281 165.40625 69.414062 165.414062 66.835938 165.417969 C 65.933594 165.421875 65.03125 165.425781 64.128906 165.425781 C 63.699219 165.429688 63.273438 165.429688 62.84375 165.433594 C 62.324219 165.433594 61.804688 165.433594 61.285156 165.4375 C 58.882812 165.441406 58.882812 165.441406 57.917969 165.207031 C 57.5 164.582031 57.5 164.582031 57.445312 163.953125 L 57.445312 162.738281 C 57.441406 162.265625 57.441406 161.796875 57.445312 161.324219 L 57.445312 160.339844 C 57.441406 159.648438 57.445312 158.960938 57.445312 158.273438 C 57.449219 157.390625 57.445312 156.511719 57.445312 155.628906 C 57.441406 154.953125 57.441406 154.273438 57.445312 153.597656 C 57.445312 153.273438 57.445312 152.945312 57.441406 152.621094 C 57.441406 152.167969 57.445312 151.710938 57.445312 151.257812 L 57.445312 150.472656 C 57.5 149.796875 57.597656 149.34375 57.917969 148.75 C 58.542969 148.332031 58.542969 148.332031 59.101562 148.28125 " fill-opacity="1" fill-rule="nonzero"/><path fill="#3872f7" d="M 144.929688 148.320312 C 146.421875 148.296875 147.914062 148.285156 149.40625 148.285156 C 150.171875 148.28125 150.933594 148.273438 151.699219 148.269531 L 153.171875 148.265625 L 153.855469 148.257812 C 155.097656 148.261719 155.988281 148.355469 157.082031 148.957031 C 158.027344 149.75 158.644531 150.726562 159.296875 151.757812 L 159.597656 152.222656 C 160.003906 152.859375 160.386719 153.484375 160.722656 154.160156 C 161.074219 154.859375 161.496094 155.480469 161.933594 156.125 C 162.554688 157.0625 163.121094 158.027344 163.695312 158.992188 C 165.257812 161.59375 166.886719 164.136719 168.554688 166.667969 C 169.585938 168.234375 170.585938 169.816406 171.582031 171.40625 C 171.882812 171.886719 172.183594 172.367188 172.488281 172.84375 C 174.410156 175.875 176.304688 178.921875 178.164062 181.988281 C 179.347656 183.945312 180.558594 185.886719 181.792969 187.816406 C 182.894531 189.539062 183.964844 191.289062 185.03125 193.035156 C 185.96875 194.5625 186.933594 196.0625 187.957031 197.527344 C 188.773438 198.710938 189.496094 199.847656 189.660156 201.300781 C 189.691406 202.117188 189.695312 202.933594 189.6875 203.75 C 189.6875 204.0625 189.691406 204.375 189.691406 204.691406 C 189.695312 205.535156 189.691406 206.378906 189.6875 207.222656 C 189.683594 208.109375 189.6875 208.996094 189.6875 209.882812 C 189.6875 211.367188 189.6875 212.851562 189.679688 214.339844 C 189.675781 216.058594 189.675781 217.773438 189.675781 219.492188 C 189.679688 221.148438 189.679688 222.800781 189.675781 224.457031 C 189.675781 225.160156 189.675781 225.863281 189.675781 226.566406 C 189.675781 227.394531 189.671875 228.222656 189.667969 229.046875 C 189.667969 229.351562 189.667969 229.65625 189.667969 229.960938 C 189.671875 230.375 189.667969 230.789062 189.664062 231.203125 L 189.664062 231.90625 C 189.582031 232.5 189.582031 232.5 189.304688 232.984375 C 188.957031 233.332031 188.957031 233.332031 188.332031 233.542969 C 187.855469 233.5625 187.378906 233.570312 186.902344 233.570312 L 186.464844 233.574219 C 185.984375 233.574219 185.507812 233.578125 185.027344 233.578125 L 184.027344 233.578125 C 183.332031 233.578125 182.632812 233.582031 181.933594 233.582031 C 181.042969 233.582031 180.148438 233.582031 179.253906 233.585938 C 178.566406 233.589844 177.878906 233.589844 177.191406 233.589844 C 176.859375 233.589844 176.53125 233.589844 176.203125 233.59375 C 175.742188 233.59375 175.28125 233.59375 174.820312 233.59375 L 174.023438 233.59375 C 172.878906 233.507812 172.878906 233.507812 172.292969 233.125 C 171.691406 231.824219 171.824219 230.394531 171.835938 228.988281 L 171.835938 227.753906 C 171.839844 227.316406 171.839844 226.878906 171.84375 226.4375 C 171.847656 225.519531 171.851562 224.601562 171.855469 223.683594 C 171.859375 221.570312 171.867188 219.457031 171.878906 217.34375 C 171.886719 215.40625 171.894531 213.46875 171.898438 211.53125 C 171.898438 210.617188 171.902344 209.707031 171.910156 208.796875 C 171.910156 208.367188 171.914062 207.933594 171.914062 207.503906 C 171.914062 206.980469 171.917969 206.457031 171.921875 205.933594 C 171.921875 204.304688 171.820312 202.855469 171.121094 201.367188 L 170.722656 200.691406 L 170.5 200.320312 C 169.738281 199.046875 168.910156 197.8125 168.074219 196.585938 C 166.195312 193.820312 164.421875 191.003906 162.6875 188.148438 C 162.03125 187.070312 161.359375 186.003906 160.691406 184.933594 C 159.714844 183.375 158.742188 181.8125 157.773438 180.246094 C 156.621094 178.382812 155.457031 176.527344 154.28125 174.675781 C 153.949219 174.152344 153.617188 173.625 153.285156 173.097656 C 151.339844 170.015625 149.320312 166.984375 147.292969 163.957031 C 145.863281 161.824219 144.449219 159.679688 143.046875 157.527344 L 142.355469 156.472656 C 141.828125 155.664062 141.296875 154.859375 140.765625 154.054688 L 140.335938 153.398438 C 140.066406 152.992188 139.796875 152.585938 139.527344 152.183594 C 138.882812 151.203125 138.335938 150.265625 137.917969 149.167969 C 138.160156 148.859375 138.160156 148.859375 138.542969 148.542969 C 139.035156 148.453125 139.035156 148.453125 139.621094 148.4375 L 140.292969 148.414062 L 141.019531 148.402344 L 141.777344 148.382812 C 142.828125 148.355469 143.878906 148.339844 144.929688 148.320312 " fill-opacity="1" fill-rule="nonzero"/><path fill="#2360d7" d="M 207.402344 148.308594 L 207.945312 148.308594 C 208.535156 148.308594 209.125 148.3125 209.71875 148.3125 L 210.945312 148.3125 C 212.023438 148.316406 213.101562 148.316406 214.179688 148.320312 C 215.28125 148.320312 216.382812 148.324219 217.480469 148.324219 C 219.640625 148.324219 221.800781 148.328125 223.957031 148.332031 C 224.035156 148.679688 224.105469 149.027344 224.167969 149.375 C 224.027344 149.761719 224.027344 149.761719 223.789062 150.125 L 223.527344 150.535156 L 223.242188 150.964844 L 222.953125 151.414062 C 222.28125 152.4375 221.578125 153.429688 220.847656 154.410156 C 220.054688 155.496094 219.324219 156.625 218.585938 157.746094 C 218.351562 158.097656 218.113281 158.449219 217.875 158.800781 C 217.203125 159.785156 216.574219 160.769531 216.015625 161.824219 C 215.496094 162.804688 214.9375 163.773438 214.167969 164.582031 L 213.75 164.582031 L 213.542969 165.417969 L 213.125 165.417969 L 213.0625 165.972656 C 212.90625 166.710938 212.679688 167.136719 212.265625 167.761719 L 211.863281 168.371094 C 211.511719 168.882812 211.15625 169.390625 210.792969 169.894531 C 209.957031 171.078125 209.191406 172.304688 208.425781 173.535156 C 208.117188 174.023438 207.808594 174.511719 207.5 175 L 207.160156 175.539062 L 206.824219 176.058594 L 206.519531 176.535156 L 206.25 176.875 L 205.832031 176.875 L 204.582031 179.375 L 204.167969 179.375 L 204.128906 179.785156 C 203.882812 180.695312 203.390625 181.390625 202.878906 182.175781 L 202.539062 182.699219 C 202.179688 183.257812 201.820312 183.816406 201.457031 184.375 C 200.992188 185.097656 200.527344 185.824219 200.066406 186.550781 L 199.703125 187.113281 C 198.523438 188.96875 197.386719 190.847656 196.257812 192.730469 C 193.632812 197.09375 193.632812 197.09375 192.707031 197.707031 C 192.195312 197.597656 192.195312 197.597656 191.667969 197.292969 C 191.285156 196.796875 191.285156 196.796875 190.929688 196.175781 L 190.527344 195.476562 C 190.457031 195.355469 190.390625 195.230469 190.316406 195.105469 C 190.027344 194.59375 189.730469 194.082031 189.4375 193.570312 C 189.285156 193.3125 189.136719 193.054688 188.988281 192.792969 C 188.308594 191.617188 187.605469 190.460938 186.886719 189.308594 L 186.554688 188.777344 C 185.746094 187.476562 184.921875 186.183594 184.085938 184.898438 C 183.664062 184.242188 183.546875 184.011719 183.476562 183.214844 C 183.496094 181.960938 184.070312 180.945312 184.6875 179.875 C 185.050781 179.277344 185.417969 178.6875 185.792969 178.097656 L 186.207031 177.441406 C 187.292969 175.730469 188.398438 174.03125 189.511719 172.339844 C 190.375 171.015625 191.214844 169.679688 192.027344 168.328125 C 192.839844 166.988281 193.683594 165.667969 194.53125 164.347656 C 195.917969 162.191406 197.28125 160.023438 198.636719 157.847656 C 199.617188 156.277344 200.605469 154.710938 201.597656 153.148438 C 201.867188 152.71875 202.140625 152.289062 202.410156 151.859375 C 202.574219 151.601562 202.738281 151.339844 202.902344 151.082031 L 203.324219 150.414062 C 203.785156 149.738281 204.234375 149.140625 204.792969 148.542969 C 205.640625 148.25 206.515625 148.304688 207.402344 148.308594 " fill-opacity="1" fill-rule="nonzero"/><path fill="#4668c5" d="M 167.917969 166.25 L 168.332031 166.25 C 168.621094 166.636719 168.621094 166.636719 168.953125 167.183594 L 169.332031 167.792969 L 169.738281 168.464844 C 170.023438 168.925781 170.308594 169.386719 170.59375 169.847656 C 170.703125 170.027344 170.703125 170.027344 170.8125 170.207031 C 171.511719 171.339844 172.226562 172.460938 172.941406 173.582031 C 174.71875 176.363281 176.453125 179.164062 178.164062 181.988281 C 179.347656 183.945312 180.558594 185.886719 181.792969 187.816406 C 182.894531 189.539062 183.964844 191.289062 185.03125 193.035156 C 185.96875 194.5625 186.933594 196.0625 187.957031 197.527344 C 188.773438 198.710938 189.496094 199.847656 189.660156 201.300781 C 189.691406 202.117188 189.695312 202.933594 189.6875 203.75 C 189.6875 204.0625 189.691406 204.375 189.691406 204.691406 C 189.695312 205.535156 189.691406 206.378906 189.6875 207.222656 C 189.683594 208.109375 189.6875 208.996094 189.6875 209.882812 C 189.6875 211.367188 189.6875 212.851562 189.679688 214.339844 C 189.675781 216.058594 189.675781 217.773438 189.675781 219.492188 C 189.679688 221.148438 189.679688 222.800781 189.675781 224.457031 C 189.675781 225.160156 189.675781 225.863281 189.675781 226.566406 C 189.675781 227.394531 189.671875 228.222656 189.667969 229.046875 C 189.667969 229.351562 189.667969 229.65625 189.667969 229.960938 C 189.671875 230.375 189.667969 230.789062 189.664062 231.203125 L 189.664062 231.90625 C 189.582031 232.5 189.582031 232.5 189.304688 232.984375 C 188.957031 233.332031 188.957031 233.332031 188.332031 233.542969 C 187.855469 233.5625 187.378906 233.570312 186.902344 233.570312 L 186.464844 233.574219 C 185.984375 233.574219 185.507812 233.578125 185.027344 233.578125 L 184.027344 233.578125 C 183.332031 233.578125 182.632812 233.582031 181.933594 233.582031 C 181.042969 233.582031 180.148438 233.582031 179.253906 233.585938 C 178.566406 233.589844 177.878906 233.589844 177.191406 233.589844 C 176.859375 233.589844 176.53125 233.589844 176.203125 233.59375 C 175.742188 233.59375 175.28125 233.59375 174.820312 233.59375 L 174.023438 233.59375 C 172.878906 233.507812 172.878906 233.507812 172.292969 233.125 C 171.691406 231.824219 171.824219 230.394531 171.835938 228.988281 L 171.835938 227.753906 C 171.839844 227.316406 171.839844 226.878906 171.84375 226.4375 C 171.847656 225.519531 171.851562 224.601562 171.855469 223.683594 C 171.859375 221.570312 171.867188 219.457031 171.878906 217.34375 C 171.886719 215.40625 171.894531 213.46875 171.898438 211.53125 C 171.898438 210.617188 171.902344 209.707031 171.910156 208.796875 C 171.910156 208.367188 171.914062 207.933594 171.914062 207.503906 C 171.914062 206.980469 171.917969 206.457031 171.921875 205.933594 C 171.921875 204.304688 171.820312 202.855469 171.121094 201.367188 L 170.722656 200.691406 L 170.5 200.320312 C 169.738281 199.046875 168.910156 197.8125 168.074219 196.585938 C 166.199219 193.824219 164.429688 191.011719 162.695312 188.160156 C 162 187.023438 161.292969 185.894531 160.585938 184.765625 L 160.199219 184.148438 L 159.835938 183.566406 L 159.492188 183.015625 C 159.28125 182.679688 159.0625 182.34375 158.839844 182.011719 L 158.542969 181.5625 L 158.28125 181.179688 L 158.125 180.832031 L 158.332031 180.207031 C 158.804688 180.949219 159.28125 181.691406 159.753906 182.433594 L 160.160156 183.070312 L 160.550781 183.6875 L 160.910156 184.253906 C 161.140625 184.617188 161.363281 184.984375 161.582031 185.355469 C 161.859375 185.851562 161.859375 185.851562 162.292969 186.25 L 162.394531 186.679688 L 162.5 187.082031 L 162.917969 187.292969 L 163.332031 188.125 L 163.957031 188.75 L 163.957031 189.167969 C 164.234375 189.445312 164.511719 189.722656 164.792969 190 C 165.03125 190.34375 165.261719 190.695312 165.480469 191.054688 C 165.867188 191.679688 166.257812 192.300781 166.660156 192.914062 L 167.058594 193.515625 L 167.421875 194.0625 C 167.714844 194.59375 167.804688 195.035156 167.917969 195.625 L 168.332031 195.832031 C 168.476562 196.109375 168.613281 196.386719 168.75 196.667969 L 169.167969 197.082031 L 169.582031 197.917969 L 170 198.332031 L 170.417969 199.167969 L 170.832031 199.582031 C 171.664062 200.75 172.097656 201.710938 172.292969 203.125 C 172.316406 203.6875 172.328125 204.242188 172.335938 204.804688 L 172.339844 205.300781 C 172.347656 205.847656 172.351562 206.390625 172.359375 206.9375 L 172.371094 208.09375 C 172.382812 209.125 172.394531 210.15625 172.402344 211.1875 C 172.410156 212.035156 172.421875 212.882812 172.429688 213.730469 C 172.472656 217.550781 172.511719 221.375 172.5 225.199219 L 172.496094 225.953125 C 172.492188 227.0625 172.484375 228.171875 172.472656 229.285156 L 172.464844 230.414062 L 172.457031 230.921875 C 172.457031 231.308594 172.476562 231.695312 172.5 232.082031 L 172.917969 232.5 C 173.417969 232.539062 173.917969 232.554688 174.417969 232.546875 L 174.886719 232.546875 C 175.398438 232.546875 175.910156 232.542969 176.421875 232.539062 L 177.484375 232.539062 C 178.417969 232.539062 179.351562 232.53125 180.285156 232.527344 C 181.238281 232.523438 182.191406 232.523438 183.140625 232.519531 C 185.011719 232.515625 186.878906 232.507812 188.75 232.5 C 188.769531 228.464844 188.785156 224.429688 188.792969 220.394531 C 188.796875 218.523438 188.804688 216.648438 188.8125 214.773438 C 188.820312 213.140625 188.828125 211.507812 188.828125 209.871094 C 188.828125 209.007812 188.832031 208.144531 188.839844 207.28125 C 188.84375 206.464844 188.84375 205.648438 188.84375 204.835938 C 188.84375 204.535156 188.847656 204.238281 188.847656 203.941406 C 188.871094 201.890625 188.621094 200.238281 187.625 198.429688 C 187.34375 197.949219 187.039062 197.484375 186.730469 197.019531 L 186.394531 196.496094 C 186.070312 195.996094 185.746094 195.5 185.417969 195 C 185.117188 194.535156 184.816406 194.070312 184.519531 193.605469 L 184.070312 192.910156 C 182.417969 190.328125 180.773438 187.738281 179.246094 185.078125 L 178.96875 184.59375 C 178.585938 183.933594 178.210938 183.273438 177.832031 182.609375 C 176.261719 179.871094 174.570312 177.234375 172.808594 174.617188 C 171.363281 172.46875 169.957031 170.292969 168.582031 168.101562 C 168.363281 167.757812 168.140625 167.421875 167.917969 167.082031 Z M 167.917969 166.25 " fill-opacity="1" fill-rule="nonzero"/><path fill="#4567c5" d="M 281.25 229.167969 C 281.730469 229.304688 281.730469 229.304688 282.292969 229.582031 C 282.628906 230.101562 282.628906 230.101562 282.917969 230.714844 C 283.21875 231.359375 283.421875 231.785156 283.988281 232.21875 C 284.734375 232.570312 285.273438 232.574219 286.097656 232.570312 L 286.546875 232.570312 C 287.035156 232.570312 287.523438 232.566406 288.011719 232.5625 C 288.351562 232.558594 288.691406 232.558594 289.03125 232.558594 C 289.921875 232.554688 290.8125 232.550781 291.703125 232.542969 C 292.613281 232.535156 293.527344 232.535156 294.4375 232.53125 C 296.222656 232.523438 298.007812 232.511719 299.792969 232.5 C 300.285156 231.613281 300.285156 231.613281 300.417969 230.625 C 300.285156 230.136719 300.144531 229.652344 300 229.167969 L 300.625 229.167969 C 301.066406 229.609375 301.386719 230.144531 301.730469 230.664062 L 302.035156 231.089844 C 302.300781 231.484375 302.527344 231.851562 302.707031 232.292969 C 302.613281 232.902344 302.613281 232.902344 302.292969 233.332031 C 301.609375 233.578125 300.945312 233.566406 300.226562 233.570312 L 298.652344 233.570312 C 298.371094 233.570312 298.085938 233.570312 297.804688 233.570312 C 297.207031 233.570312 296.613281 233.570312 296.015625 233.570312 C 295.414062 233.566406 294.8125 233.566406 294.210938 233.570312 C 292.25 233.570312 290.292969 233.5625 288.332031 233.542969 L 287.652344 233.535156 C 287.070312 233.53125 286.488281 233.515625 285.90625 233.5 L 285.414062 233.496094 C 284.824219 233.472656 284.3125 233.421875 283.800781 233.113281 C 282.992188 232.464844 282.527344 231.773438 282.003906 230.898438 L 281.78125 230.53125 C 281.59375 230.222656 281.421875 229.902344 281.25 229.582031 Z M 197.5 188.957031 L 198.125 189.167969 C 197.796875 190.425781 197.121094 191.4375 196.433594 192.527344 L 196.0625 193.113281 C 195.710938 193.671875 195.355469 194.234375 195 194.792969 L 194.71875 195.230469 C 193.457031 197.210938 193.457031 197.210938 192.707031 197.707031 C 192.199219 197.605469 192.199219 197.605469 191.667969 197.292969 C 191.242188 196.734375 191.242188 196.734375 190.835938 196.035156 L 190.617188 195.660156 C 190.464844 195.402344 190.3125 195.140625 190.164062 194.878906 C 189.933594 194.480469 189.703125 194.082031 189.46875 193.683594 C 188.667969 192.3125 188.667969 192.3125 188.332031 191.667969 L 188.332031 191.25 L 188.957031 191.457031 C 189.339844 191.964844 189.339844 191.964844 189.726562 192.589844 L 190.121094 193.214844 C 190.417969 193.75 190.417969 193.75 190.417969 194.167969 L 191.042969 194.375 C 191.1875 194.648438 191.328125 194.925781 191.457031 195.207031 L 191.875 195.417969 C 192.027344 195.757812 192.164062 196.105469 192.292969 196.457031 C 193.246094 195.59375 193.875 194.625 194.542969 193.527344 C 194.761719 193.175781 194.984375 192.820312 195.203125 192.46875 L 195.527344 191.949219 C 196.160156 190.9375 196.828125 189.945312 197.5 188.957031 " fill-opacity="1" fill-rule="nonzero"/><path fill="#4668c5" d="M 138.332031 149.582031 C 138.6875 149.695312 138.6875 149.695312 139.167969 150 C 139.546875 150.488281 139.855469 151.015625 140.167969 151.550781 L 140.722656 152.460938 L 140.992188 152.910156 C 141.339844 153.480469 141.695312 154.039062 142.058594 154.597656 C 142.675781 155.5625 143.273438 156.53125 143.777344 157.566406 C 143.957031 157.957031 143.957031 157.957031 144.375 158.332031 L 144.542969 158.699219 C 144.792969 159.21875 144.792969 159.21875 145.324219 159.753906 C 145.792969 160.289062 145.84375 160.472656 146.003906 161.222656 L 146.042969 161.875 C 145.476562 161.183594 144.949219 160.464844 144.460938 159.714844 L 144.035156 159.058594 L 143.582031 158.359375 L 142.390625 156.527344 C 141.847656 155.691406 141.296875 154.859375 140.746094 154.03125 L 140.3125 153.375 C 140.039062 152.964844 139.765625 152.554688 139.492188 152.144531 L 139.121094 151.585938 L 138.796875 151.097656 C 138.523438 150.589844 138.417969 150.152344 138.332031 149.582031 " fill-opacity="1" fill-rule="nonzero"/><path fill="#4469ca" d="M 291.457031 216.457031 C 291.828125 216.601562 291.828125 216.601562 292.292969 216.875 C 292.671875 217.347656 292.671875 217.347656 293.058594 217.9375 L 293.488281 218.585938 L 293.933594 219.269531 L 294.371094 219.933594 C 295.238281 221.253906 296.074219 222.597656 296.875 223.957031 C 296.097656 223.589844 295.542969 223.167969 295 222.5 C 294.488281 221.753906 294.011719 220.984375 293.542969 220.207031 L 293.199219 219.65625 C 292.566406 218.617188 291.984375 217.554688 291.457031 216.457031 " fill-opacity="1" fill-rule="nonzero"/><path fill="#4668c5" d="M 134.375 156.667969 L 134.792969 156.667969 L 134.792969 163.75 L 134.167969 163.542969 C 134.160156 162.667969 134.15625 161.796875 134.152344 160.925781 L 134.148438 160.179688 C 134.144531 158.984375 134.15625 157.839844 134.375 156.667969 M 161.25 155.832031 C 161.777344 156.042969 162.058594 156.21875 162.414062 156.667969 C 162.75 157.210938 163.082031 157.757812 163.410156 158.308594 L 163.773438 158.882812 L 164.105469 159.4375 L 164.414062 159.945312 L 164.582031 160.417969 C 164.40625 160.894531 164.40625 160.894531 164.167969 161.25 C 163.679688 160.464844 163.191406 159.679688 162.707031 158.894531 L 162.285156 158.214844 L 161.886719 157.566406 L 161.519531 156.96875 C 161.25 156.457031 161.25 156.457031 161.25 155.832031 M 213.75 164.792969 L 213.542969 165.417969 L 213.125 165.417969 L 213.066406 165.96875 C 212.902344 166.734375 212.644531 167.203125 212.214844 167.851562 L 211.832031 168.441406 C 211.523438 168.871094 211.222656 169.226562 210.832031 169.582031 C 210.691406 169.128906 210.691406 169.128906 210.625 168.542969 C 210.863281 168 210.863281 168 211.210938 167.460938 L 211.554688 166.917969 C 211.875 166.457031 211.875 166.457031 212.292969 166.042969 L 212.605469 165.507812 L 212.917969 165 C 213.332031 164.792969 213.332031 164.792969 213.75 164.792969 " fill-opacity="1" fill-rule="nonzero"/><path fill="#3872f7" d="M 292.292969 154.375 C 294.363281 155.292969 296.058594 157.453125 297.5 159.167969 C 297.886719 159.710938 298.214844 160.25 298.542969 160.832031 C 298.042969 160.625 297.734375 160.445312 297.375 160.039062 L 297.042969 159.582031 C 295.714844 157.675781 295.714844 157.675781 293.957031 156.25 L 293.957031 155.832031 L 293.59375 155.691406 C 293.007812 155.347656 292.691406 154.917969 292.292969 154.375 M 200.832031 184.375 L 201.25 184.375 C 200.941406 185.253906 200.496094 185.964844 199.972656 186.730469 L 199.515625 187.40625 L 199.167969 187.917969 L 198.75 187.707031 C 199.050781 186.855469 199.46875 186.1875 200 185.457031 L 200.441406 184.839844 Z M 200.832031 184.375 " fill-opacity="1" fill-rule="nonzero"/><path fill="#4668c5" d="M 302.707031 178.125 L 303.332031 178.125 L 303.125 180.832031 L 302.292969 180.832031 C 302.160156 180.351562 302.160156 180.351562 302.082031 179.792969 L 302.5 179.167969 C 302.582031 178.820312 302.652344 178.472656 302.707031 178.125 M 301.457031 168.125 L 302.292969 168.125 C 302.398438 168.492188 302.5 168.863281 302.605469 169.230469 L 302.78125 169.855469 C 302.917969 170.417969 302.917969 170.417969 302.917969 171.042969 L 302.292969 171.25 L 302.164062 170.726562 L 301.992188 170.039062 L 301.824219 169.359375 C 301.714844 168.941406 301.59375 168.53125 301.457031 168.125 M 276.875 222.707031 L 277.707031 222.707031 L 278.542969 224.792969 C 277.707031 224.375 277.707031 224.375 277.238281 223.75 L 276.875 223.125 Z M 302.5 171.667969 L 302.707031 172.082031 L 303.125 172.082031 L 303.125 174.167969 L 302.707031 174.167969 Z M 302.5 171.667969 " fill-opacity="1" fill-rule="nonzero"/><path fill="#3872f7" d="M 294.582031 196.667969 L 295 196.667969 C 294.828125 197.125 294.636719 197.453125 294.277344 197.789062 C 293.964844 198.042969 293.652344 198.292969 293.332031 198.542969 L 293.125 198.125 Z M 294.582031 196.667969 " fill-opacity="1" fill-rule="nonzero"/><path fill="#4668c5" d="M 245.417969 205.832031 L 246.042969 205.832031 L 245.832031 207.707031 L 245.417969 207.707031 Z M 245.417969 205.832031 " fill-opacity="1" fill-rule="nonzero"/></svg>